<mxfile host="app.diagrams.net" modified="2021-11-21T08:56:07.292Z" agent="5.0 (Macintosh; Intel Mac OS X 10_15_7) AppleWebKit/537.36 (KHTML, like Gecko) Chrome/95.0.4638.69 Safari/537.36" etag="sFax9M9uRwZ2f9XkzEn1" version="15.8.3" type="github">
  <diagram id="C5RBs43oDa-KdzZeNtuy" name="Page-1">
    <mxGraphModel dx="2970" dy="2104" grid="1" gridSize="10" guides="1" tooltips="1" connect="1" arrows="1" fold="1" page="1" pageScale="1" pageWidth="827" pageHeight="1169" background="#F1FAEE" math="0" shadow="0">
      <root>
        <mxCell id="WIyWlLk6GJQsqaUBKTNV-0" />
        <mxCell id="WIyWlLk6GJQsqaUBKTNV-1" parent="WIyWlLk6GJQsqaUBKTNV-0" />
        <mxCell id="NiHceYWHQyxMRy1g1fNh-12" style="edgeStyle=orthogonalEdgeStyle;orthogonalLoop=1;jettySize=auto;html=1;entryX=0.5;entryY=0;entryDx=0;entryDy=0;fontColor=#1D3557;strokeColor=#457B9D;fillColor=#A8DADC;" edge="1" parent="WIyWlLk6GJQsqaUBKTNV-1" source="WIyWlLk6GJQsqaUBKTNV-3" target="NiHceYWHQyxMRy1g1fNh-5">
          <mxGeometry relative="1" as="geometry" />
        </mxCell>
        <mxCell id="WIyWlLk6GJQsqaUBKTNV-3" value="域名注册" style="whiteSpace=wrap;html=1;fontSize=12;glass=0;strokeWidth=1;shadow=0;fillColor=#ffe6cc;strokeColor=#d79b00;" parent="WIyWlLk6GJQsqaUBKTNV-1" vertex="1">
          <mxGeometry x="210" y="80" width="120" height="40" as="geometry" />
        </mxCell>
        <mxCell id="NiHceYWHQyxMRy1g1fNh-10" style="edgeStyle=orthogonalEdgeStyle;orthogonalLoop=1;jettySize=auto;html=1;fontColor=#1D3557;strokeColor=#457B9D;fillColor=#A8DADC;" edge="1" parent="WIyWlLk6GJQsqaUBKTNV-1" source="NiHceYWHQyxMRy1g1fNh-0" target="NiHceYWHQyxMRy1g1fNh-9">
          <mxGeometry relative="1" as="geometry" />
        </mxCell>
        <mxCell id="NiHceYWHQyxMRy1g1fNh-17" style="edgeStyle=orthogonalEdgeStyle;orthogonalLoop=1;jettySize=auto;html=1;fontColor=#1D3557;strokeColor=#457B9D;fillColor=#A8DADC;" edge="1" parent="WIyWlLk6GJQsqaUBKTNV-1" source="NiHceYWHQyxMRy1g1fNh-0" target="NiHceYWHQyxMRy1g1fNh-15">
          <mxGeometry relative="1" as="geometry" />
        </mxCell>
        <mxCell id="NiHceYWHQyxMRy1g1fNh-26" style="edgeStyle=orthogonalEdgeStyle;orthogonalLoop=1;jettySize=auto;html=1;entryX=0.5;entryY=0;entryDx=0;entryDy=0;fontColor=#1D3557;strokeColor=#457B9D;fillColor=#A8DADC;" edge="1" parent="WIyWlLk6GJQsqaUBKTNV-1" source="NiHceYWHQyxMRy1g1fNh-0" target="NiHceYWHQyxMRy1g1fNh-2">
          <mxGeometry relative="1" as="geometry" />
        </mxCell>
        <mxCell id="NiHceYWHQyxMRy1g1fNh-0" value="资源审核" style="whiteSpace=wrap;html=1;fontSize=12;glass=0;strokeWidth=1;shadow=0;fillColor=#ffe6cc;strokeColor=#d79b00;" vertex="1" parent="WIyWlLk6GJQsqaUBKTNV-1">
          <mxGeometry x="210" y="220" width="120" height="40" as="geometry" />
        </mxCell>
        <mxCell id="NiHceYWHQyxMRy1g1fNh-2" value="购买状态" style="whiteSpace=wrap;html=1;fontSize=12;glass=0;strokeWidth=1;shadow=0;fillColor=#ffe6cc;strokeColor=#d79b00;" vertex="1" parent="WIyWlLk6GJQsqaUBKTNV-1">
          <mxGeometry x="210" y="450" width="120" height="40" as="geometry" />
        </mxCell>
        <mxCell id="NiHceYWHQyxMRy1g1fNh-13" style="edgeStyle=orthogonalEdgeStyle;orthogonalLoop=1;jettySize=auto;html=1;fontColor=#1D3557;strokeColor=#457B9D;fillColor=#A8DADC;" edge="1" parent="WIyWlLk6GJQsqaUBKTNV-1" source="NiHceYWHQyxMRy1g1fNh-5">
          <mxGeometry relative="1" as="geometry">
            <mxPoint x="270" y="220" as="targetPoint" />
          </mxGeometry>
        </mxCell>
        <mxCell id="NiHceYWHQyxMRy1g1fNh-5" value="提交" style="text;html=1;strokeColor=none;fillColor=none;align=center;verticalAlign=middle;whiteSpace=wrap;fontColor=#1D3557;" vertex="1" parent="WIyWlLk6GJQsqaUBKTNV-1">
          <mxGeometry x="270" y="150" width="60" height="30" as="geometry" />
        </mxCell>
        <mxCell id="NiHceYWHQyxMRy1g1fNh-11" value="" style="edgeStyle=orthogonalEdgeStyle;orthogonalLoop=1;jettySize=auto;html=1;fontColor=#1D3557;strokeColor=#457B9D;fillColor=#A8DADC;" edge="1" parent="WIyWlLk6GJQsqaUBKTNV-1" source="NiHceYWHQyxMRy1g1fNh-9" target="WIyWlLk6GJQsqaUBKTNV-3">
          <mxGeometry relative="1" as="geometry" />
        </mxCell>
        <mxCell id="NiHceYWHQyxMRy1g1fNh-9" value="回退" style="text;html=1;strokeColor=none;fillColor=none;align=center;verticalAlign=middle;whiteSpace=wrap;fontColor=#1D3557;" vertex="1" parent="WIyWlLk6GJQsqaUBKTNV-1">
          <mxGeometry x="210" y="150" width="60" height="30" as="geometry" />
        </mxCell>
        <mxCell id="NiHceYWHQyxMRy1g1fNh-20" style="edgeStyle=orthogonalEdgeStyle;orthogonalLoop=1;jettySize=auto;html=1;entryX=0.875;entryY=0.5;entryDx=0;entryDy=0;entryPerimeter=0;fontColor=#1D3557;strokeColor=#457B9D;fillColor=#A8DADC;" edge="1" parent="WIyWlLk6GJQsqaUBKTNV-1" source="NiHceYWHQyxMRy1g1fNh-15" target="NiHceYWHQyxMRy1g1fNh-19">
          <mxGeometry relative="1" as="geometry" />
        </mxCell>
        <mxCell id="NiHceYWHQyxMRy1g1fNh-15" value="爬虫项目" style="whiteSpace=wrap;html=1;fontSize=12;glass=0;strokeWidth=1;shadow=0;fillColor=#A8DADC;strokeColor=#457B9D;fontColor=#1D3557;" vertex="1" parent="WIyWlLk6GJQsqaUBKTNV-1">
          <mxGeometry x="60" y="300" width="120" height="40" as="geometry" />
        </mxCell>
        <mxCell id="NiHceYWHQyxMRy1g1fNh-23" style="edgeStyle=orthogonalEdgeStyle;orthogonalLoop=1;jettySize=auto;html=1;entryX=0.96;entryY=0.7;entryDx=0;entryDy=0;entryPerimeter=0;fontColor=#1D3557;strokeColor=#457B9D;fillColor=#A8DADC;" edge="1" parent="WIyWlLk6GJQsqaUBKTNV-1" source="NiHceYWHQyxMRy1g1fNh-16" target="NiHceYWHQyxMRy1g1fNh-19">
          <mxGeometry relative="1" as="geometry" />
        </mxCell>
        <mxCell id="NiHceYWHQyxMRy1g1fNh-28" style="edgeStyle=orthogonalEdgeStyle;orthogonalLoop=1;jettySize=auto;html=1;entryX=0;entryY=0;entryDx=0;entryDy=52.5;entryPerimeter=0;fontColor=#1D3557;strokeColor=#457B9D;fillColor=#A8DADC;" edge="1" parent="WIyWlLk6GJQsqaUBKTNV-1" source="NiHceYWHQyxMRy1g1fNh-16" target="NiHceYWHQyxMRy1g1fNh-27">
          <mxGeometry relative="1" as="geometry">
            <Array as="points">
              <mxPoint x="120" y="573" />
              <mxPoint x="320" y="573" />
            </Array>
          </mxGeometry>
        </mxCell>
        <mxCell id="NiHceYWHQyxMRy1g1fNh-16" value="定时脚本" style="whiteSpace=wrap;html=1;fontSize=12;glass=0;strokeWidth=1;shadow=0;fillColor=#A8DADC;strokeColor=#457B9D;fontColor=#1D3557;" vertex="1" parent="WIyWlLk6GJQsqaUBKTNV-1">
          <mxGeometry x="60" y="370" width="120" height="40" as="geometry" />
        </mxCell>
        <mxCell id="NiHceYWHQyxMRy1g1fNh-18" value="提交" style="text;html=1;strokeColor=none;fillColor=none;align=center;verticalAlign=middle;whiteSpace=wrap;fontColor=#1D3557;" vertex="1" parent="WIyWlLk6GJQsqaUBKTNV-1">
          <mxGeometry x="140" y="210" width="60" height="30" as="geometry" />
        </mxCell>
        <mxCell id="NiHceYWHQyxMRy1g1fNh-51" style="edgeStyle=orthogonalEdgeStyle;orthogonalLoop=1;jettySize=auto;html=1;fontColor=#1D3557;strokeColor=#457B9D;fillColor=#A8DADC;" edge="1" parent="WIyWlLk6GJQsqaUBKTNV-1" source="NiHceYWHQyxMRy1g1fNh-19" target="NiHceYWHQyxMRy1g1fNh-38">
          <mxGeometry relative="1" as="geometry" />
        </mxCell>
        <mxCell id="NiHceYWHQyxMRy1g1fNh-19" value="易名中国（域名注册供应商）" style="ellipse;shape=cloud;whiteSpace=wrap;html=1;" vertex="1" parent="WIyWlLk6GJQsqaUBKTNV-1">
          <mxGeometry x="-240" y="310" width="200" height="80" as="geometry" />
        </mxCell>
        <mxCell id="NiHceYWHQyxMRy1g1fNh-21" value="购买" style="text;html=1;strokeColor=none;fillColor=none;align=center;verticalAlign=middle;whiteSpace=wrap;fontColor=#1D3557;" vertex="1" parent="WIyWlLk6GJQsqaUBKTNV-1">
          <mxGeometry x="-10" y="300" width="60" height="30" as="geometry" />
        </mxCell>
        <mxCell id="NiHceYWHQyxMRy1g1fNh-24" value="拉取" style="text;html=1;strokeColor=none;fillColor=none;align=center;verticalAlign=middle;whiteSpace=wrap;fontColor=#1D3557;" vertex="1" parent="WIyWlLk6GJQsqaUBKTNV-1">
          <mxGeometry y="380" width="60" height="30" as="geometry" />
        </mxCell>
        <mxCell id="NiHceYWHQyxMRy1g1fNh-31" style="edgeStyle=orthogonalEdgeStyle;orthogonalLoop=1;jettySize=auto;html=1;entryX=0.5;entryY=1;entryDx=0;entryDy=0;fontColor=#1D3557;strokeColor=#457B9D;fillColor=#A8DADC;" edge="1" parent="WIyWlLk6GJQsqaUBKTNV-1" source="NiHceYWHQyxMRy1g1fNh-27" target="NiHceYWHQyxMRy1g1fNh-2">
          <mxGeometry relative="1" as="geometry" />
        </mxCell>
        <mxCell id="NiHceYWHQyxMRy1g1fNh-35" style="edgeStyle=orthogonalEdgeStyle;orthogonalLoop=1;jettySize=auto;html=1;entryX=0.5;entryY=1;entryDx=0;entryDy=0;fontColor=#1D3557;strokeColor=#457B9D;fillColor=#A8DADC;startArrow=none;" edge="1" parent="WIyWlLk6GJQsqaUBKTNV-1" source="NiHceYWHQyxMRy1g1fNh-36" target="NiHceYWHQyxMRy1g1fNh-34">
          <mxGeometry relative="1" as="geometry" />
        </mxCell>
        <mxCell id="NiHceYWHQyxMRy1g1fNh-123" style="edgeStyle=orthogonalEdgeStyle;orthogonalLoop=1;jettySize=auto;html=1;entryX=0.5;entryY=1;entryDx=0;entryDy=0;fontColor=#1D3557;strokeColor=#457B9D;fillColor=#A8DADC;" edge="1" parent="WIyWlLk6GJQsqaUBKTNV-1" source="NiHceYWHQyxMRy1g1fNh-27" target="NiHceYWHQyxMRy1g1fNh-107">
          <mxGeometry relative="1" as="geometry">
            <Array as="points">
              <mxPoint x="493" y="610" />
              <mxPoint x="1050" y="610" />
            </Array>
          </mxGeometry>
        </mxCell>
        <mxCell id="NiHceYWHQyxMRy1g1fNh-124" style="edgeStyle=orthogonalEdgeStyle;orthogonalLoop=1;jettySize=auto;html=1;entryX=0.5;entryY=1;entryDx=0;entryDy=0;fontColor=#1D3557;strokeColor=#457B9D;fillColor=#A8DADC;" edge="1" parent="WIyWlLk6GJQsqaUBKTNV-1" source="NiHceYWHQyxMRy1g1fNh-27" target="NiHceYWHQyxMRy1g1fNh-108">
          <mxGeometry relative="1" as="geometry">
            <Array as="points">
              <mxPoint x="493" y="610" />
              <mxPoint x="1230" y="610" />
            </Array>
          </mxGeometry>
        </mxCell>
        <mxCell id="NiHceYWHQyxMRy1g1fNh-27" value="DB" style="shape=cylinder3;whiteSpace=wrap;html=1;boundedLbl=1;backgroundOutline=1;size=15;strokeColor=#6c8ebf;fillColor=#dae8fc;" vertex="1" parent="WIyWlLk6GJQsqaUBKTNV-1">
          <mxGeometry x="462.5" y="520" width="60" height="80" as="geometry" />
        </mxCell>
        <mxCell id="NiHceYWHQyxMRy1g1fNh-29" value="同步" style="text;html=1;strokeColor=none;fillColor=none;align=center;verticalAlign=middle;whiteSpace=wrap;fontColor=#1D3557;" vertex="1" parent="WIyWlLk6GJQsqaUBKTNV-1">
          <mxGeometry x="150" y="540" width="60" height="30" as="geometry" />
        </mxCell>
        <mxCell id="NiHceYWHQyxMRy1g1fNh-32" value="更改" style="text;html=1;strokeColor=none;fillColor=none;align=center;verticalAlign=middle;whiteSpace=wrap;fontColor=#1D3557;" vertex="1" parent="WIyWlLk6GJQsqaUBKTNV-1">
          <mxGeometry x="350" y="530" width="60" height="30" as="geometry" />
        </mxCell>
        <mxCell id="NiHceYWHQyxMRy1g1fNh-88" style="edgeStyle=orthogonalEdgeStyle;orthogonalLoop=1;jettySize=auto;html=1;entryX=0.55;entryY=0.95;entryDx=0;entryDy=0;entryPerimeter=0;fontColor=#1D3557;strokeColor=#457B9D;fillColor=#A8DADC;" edge="1" parent="WIyWlLk6GJQsqaUBKTNV-1" source="NiHceYWHQyxMRy1g1fNh-34" target="NiHceYWHQyxMRy1g1fNh-38">
          <mxGeometry relative="1" as="geometry">
            <Array as="points">
              <mxPoint x="350" y="285" />
              <mxPoint x="350" y="810" />
              <mxPoint x="-131" y="810" />
            </Array>
          </mxGeometry>
        </mxCell>
        <mxCell id="NiHceYWHQyxMRy1g1fNh-90" style="edgeStyle=orthogonalEdgeStyle;orthogonalLoop=1;jettySize=auto;html=1;entryX=1;entryY=0.5;entryDx=0;entryDy=0;fontColor=#1D3557;strokeColor=#457B9D;fillColor=#A8DADC;" edge="1" parent="WIyWlLk6GJQsqaUBKTNV-1" source="NiHceYWHQyxMRy1g1fNh-34" target="NiHceYWHQyxMRy1g1fNh-89">
          <mxGeometry relative="1" as="geometry">
            <Array as="points">
              <mxPoint x="350" y="285" />
              <mxPoint x="350" y="810" />
              <mxPoint x="-210" y="810" />
            </Array>
          </mxGeometry>
        </mxCell>
        <mxCell id="NiHceYWHQyxMRy1g1fNh-34" value="" style="whiteSpace=wrap;html=1;fontSize=12;glass=0;strokeWidth=1;shadow=0;fillColor=#e1d5e7;strokeColor=#9673a6;" vertex="1" parent="WIyWlLk6GJQsqaUBKTNV-1">
          <mxGeometry x="415" y="150" width="155" height="270" as="geometry" />
        </mxCell>
        <mxCell id="NiHceYWHQyxMRy1g1fNh-36" value="数据支持" style="text;html=1;strokeColor=none;fillColor=none;align=center;verticalAlign=middle;whiteSpace=wrap;fontColor=#1D3557;" vertex="1" parent="WIyWlLk6GJQsqaUBKTNV-1">
          <mxGeometry x="462.5" y="460" width="60" height="30" as="geometry" />
        </mxCell>
        <mxCell id="NiHceYWHQyxMRy1g1fNh-37" value="" style="edgeStyle=orthogonalEdgeStyle;orthogonalLoop=1;jettySize=auto;html=1;entryX=0.5;entryY=1;entryDx=0;entryDy=0;fontColor=#1D3557;strokeColor=#457B9D;fillColor=#A8DADC;endArrow=none;" edge="1" parent="WIyWlLk6GJQsqaUBKTNV-1" source="NiHceYWHQyxMRy1g1fNh-27" target="NiHceYWHQyxMRy1g1fNh-36">
          <mxGeometry relative="1" as="geometry">
            <mxPoint x="490" y="520" as="sourcePoint" />
            <mxPoint x="490" y="380" as="targetPoint" />
          </mxGeometry>
        </mxCell>
        <mxCell id="NiHceYWHQyxMRy1g1fNh-38" value="DNS解析商&lt;br&gt;（DNSPOD）&lt;br&gt;（Router53）" style="ellipse;shape=cloud;whiteSpace=wrap;html=1;" vertex="1" parent="WIyWlLk6GJQsqaUBKTNV-1">
          <mxGeometry x="-225" y="530" width="170" height="90" as="geometry" />
        </mxCell>
        <mxCell id="NiHceYWHQyxMRy1g1fNh-44" style="edgeStyle=orthogonalEdgeStyle;orthogonalLoop=1;jettySize=auto;html=1;entryX=0.5;entryY=0;entryDx=0;entryDy=0;fontColor=#1D3557;strokeColor=#457B9D;fillColor=#A8DADC;" edge="1" parent="WIyWlLk6GJQsqaUBKTNV-1" source="NiHceYWHQyxMRy1g1fNh-39" target="WIyWlLk6GJQsqaUBKTNV-3">
          <mxGeometry relative="1" as="geometry" />
        </mxCell>
        <mxCell id="NiHceYWHQyxMRy1g1fNh-39" value="" style="shape=umlActor;verticalLabelPosition=bottom;verticalAlign=top;html=1;outlineConnect=0;fontColor=#1D3557;strokeColor=#457B9D;fillColor=#A8DADC;" vertex="1" parent="WIyWlLk6GJQsqaUBKTNV-1">
          <mxGeometry x="262.5" y="10" width="15" height="30" as="geometry" />
        </mxCell>
        <mxCell id="NiHceYWHQyxMRy1g1fNh-59" style="edgeStyle=orthogonalEdgeStyle;orthogonalLoop=1;jettySize=auto;html=1;entryX=0;entryY=0.5;entryDx=0;entryDy=0;fontColor=#1D3557;strokeColor=#457B9D;fillColor=#A8DADC;" edge="1" parent="WIyWlLk6GJQsqaUBKTNV-1" source="NiHceYWHQyxMRy1g1fNh-52" target="NiHceYWHQyxMRy1g1fNh-57">
          <mxGeometry relative="1" as="geometry">
            <Array as="points">
              <mxPoint x="610" y="180" />
              <mxPoint x="610" y="100" />
            </Array>
          </mxGeometry>
        </mxCell>
        <mxCell id="NiHceYWHQyxMRy1g1fNh-97" style="edgeStyle=orthogonalEdgeStyle;orthogonalLoop=1;jettySize=auto;html=1;entryX=0.5;entryY=0;entryDx=0;entryDy=0;fontColor=#1D3557;strokeColor=#457B9D;fillColor=#A8DADC;" edge="1" parent="WIyWlLk6GJQsqaUBKTNV-1" source="NiHceYWHQyxMRy1g1fNh-52" target="NiHceYWHQyxMRy1g1fNh-95">
          <mxGeometry relative="1" as="geometry" />
        </mxCell>
        <mxCell id="NiHceYWHQyxMRy1g1fNh-52" value="域名管理" style="whiteSpace=wrap;html=1;fontSize=12;glass=0;strokeWidth=1;shadow=0;" vertex="1" parent="WIyWlLk6GJQsqaUBKTNV-1">
          <mxGeometry x="430" y="160" width="120" height="40" as="geometry" />
        </mxCell>
        <mxCell id="NiHceYWHQyxMRy1g1fNh-102" style="edgeStyle=orthogonalEdgeStyle;orthogonalLoop=1;jettySize=auto;html=1;entryX=0.5;entryY=0;entryDx=0;entryDy=0;fontColor=#1D3557;strokeColor=#457B9D;fillColor=#A8DADC;" edge="1" parent="WIyWlLk6GJQsqaUBKTNV-1" source="NiHceYWHQyxMRy1g1fNh-53" target="NiHceYWHQyxMRy1g1fNh-96">
          <mxGeometry relative="1" as="geometry">
            <Array as="points">
              <mxPoint x="580" y="230" />
              <mxPoint x="580" y="200" />
              <mxPoint x="1230" y="200" />
            </Array>
          </mxGeometry>
        </mxCell>
        <mxCell id="NiHceYWHQyxMRy1g1fNh-130" style="edgeStyle=orthogonalEdgeStyle;orthogonalLoop=1;jettySize=auto;html=1;entryX=0.16;entryY=0.55;entryDx=0;entryDy=0;entryPerimeter=0;fontColor=#1D3557;strokeColor=#457B9D;fillColor=#A8DADC;" edge="1" parent="WIyWlLk6GJQsqaUBKTNV-1" source="NiHceYWHQyxMRy1g1fNh-53" target="NiHceYWHQyxMRy1g1fNh-129">
          <mxGeometry relative="1" as="geometry">
            <Array as="points">
              <mxPoint x="1000" y="210" />
              <mxPoint x="1000" y="185" />
            </Array>
          </mxGeometry>
        </mxCell>
        <mxCell id="NiHceYWHQyxMRy1g1fNh-53" value="证书管理" style="whiteSpace=wrap;html=1;fontSize=12;glass=0;strokeWidth=1;shadow=0;" vertex="1" parent="WIyWlLk6GJQsqaUBKTNV-1">
          <mxGeometry x="430" y="210" width="120" height="40" as="geometry" />
        </mxCell>
        <mxCell id="NiHceYWHQyxMRy1g1fNh-54" value="解析管理" style="whiteSpace=wrap;html=1;fontSize=12;glass=0;strokeWidth=1;shadow=0;" vertex="1" parent="WIyWlLk6GJQsqaUBKTNV-1">
          <mxGeometry x="430" y="260" width="120" height="40" as="geometry" />
        </mxCell>
        <mxCell id="NiHceYWHQyxMRy1g1fNh-55" value="其他管理" style="whiteSpace=wrap;html=1;fontSize=12;glass=0;strokeWidth=1;shadow=0;" vertex="1" parent="WIyWlLk6GJQsqaUBKTNV-1">
          <mxGeometry x="430" y="310" width="120" height="40" as="geometry" />
        </mxCell>
        <mxCell id="NiHceYWHQyxMRy1g1fNh-127" style="edgeStyle=orthogonalEdgeStyle;orthogonalLoop=1;jettySize=auto;html=1;entryX=1;entryY=0.5;entryDx=0;entryDy=0;fontColor=#1D3557;strokeColor=#457B9D;fillColor=#A8DADC;" edge="1" parent="WIyWlLk6GJQsqaUBKTNV-1" source="NiHceYWHQyxMRy1g1fNh-56" target="WIyWlLk6GJQsqaUBKTNV-3">
          <mxGeometry relative="1" as="geometry" />
        </mxCell>
        <mxCell id="NiHceYWHQyxMRy1g1fNh-56" value="系统设置" style="whiteSpace=wrap;html=1;fontSize=12;glass=0;strokeWidth=1;shadow=0;" vertex="1" parent="WIyWlLk6GJQsqaUBKTNV-1">
          <mxGeometry x="430" y="360" width="120" height="40" as="geometry" />
        </mxCell>
        <mxCell id="NiHceYWHQyxMRy1g1fNh-68" style="edgeStyle=orthogonalEdgeStyle;orthogonalLoop=1;jettySize=auto;html=1;entryX=1;entryY=0.667;entryDx=0;entryDy=0;entryPerimeter=0;fontColor=#1D3557;strokeColor=#457B9D;fillColor=#A8DADC;" edge="1" parent="WIyWlLk6GJQsqaUBKTNV-1" source="NiHceYWHQyxMRy1g1fNh-57" target="NiHceYWHQyxMRy1g1fNh-65">
          <mxGeometry relative="1" as="geometry">
            <Array as="points">
              <mxPoint x="750" y="-20" />
            </Array>
          </mxGeometry>
        </mxCell>
        <mxCell id="NiHceYWHQyxMRy1g1fNh-72" value="" style="edgeStyle=orthogonalEdgeStyle;orthogonalLoop=1;jettySize=auto;html=1;fontColor=#1D3557;strokeColor=#457B9D;fillColor=#A8DADC;" edge="1" parent="WIyWlLk6GJQsqaUBKTNV-1" source="NiHceYWHQyxMRy1g1fNh-57" target="NiHceYWHQyxMRy1g1fNh-71">
          <mxGeometry relative="1" as="geometry" />
        </mxCell>
        <mxCell id="NiHceYWHQyxMRy1g1fNh-73" style="edgeStyle=orthogonalEdgeStyle;orthogonalLoop=1;jettySize=auto;html=1;entryX=0.5;entryY=0;entryDx=0;entryDy=0;fontColor=#1D3557;strokeColor=#457B9D;fillColor=#A8DADC;" edge="1" parent="WIyWlLk6GJQsqaUBKTNV-1" source="NiHceYWHQyxMRy1g1fNh-57" target="NiHceYWHQyxMRy1g1fNh-64">
          <mxGeometry relative="1" as="geometry" />
        </mxCell>
        <mxCell id="NiHceYWHQyxMRy1g1fNh-57" value="确认续费" style="whiteSpace=wrap;html=1;fontSize=12;glass=0;strokeWidth=1;shadow=0;fillColor=#f5f5f5;strokeColor=#666666;gradientColor=#b3b3b3;" vertex="1" parent="WIyWlLk6GJQsqaUBKTNV-1">
          <mxGeometry x="700" y="80" width="120" height="40" as="geometry" />
        </mxCell>
        <mxCell id="NiHceYWHQyxMRy1g1fNh-60" value="" style="shape=umlActor;verticalLabelPosition=bottom;verticalAlign=top;html=1;outlineConnect=0;fontColor=#1D3557;strokeColor=#457B9D;fillColor=#A8DADC;" vertex="1" parent="WIyWlLk6GJQsqaUBKTNV-1">
          <mxGeometry x="590" y="120" width="15" height="30" as="geometry" />
        </mxCell>
        <mxCell id="NiHceYWHQyxMRy1g1fNh-63" value="到期筛选" style="text;html=1;strokeColor=none;fillColor=none;align=center;verticalAlign=middle;whiteSpace=wrap;fontColor=#1D3557;" vertex="1" parent="WIyWlLk6GJQsqaUBKTNV-1">
          <mxGeometry x="620" y="120" width="60" height="30" as="geometry" />
        </mxCell>
        <mxCell id="NiHceYWHQyxMRy1g1fNh-77" style="edgeStyle=orthogonalEdgeStyle;orthogonalLoop=1;jettySize=auto;html=1;fontColor=#1D3557;strokeColor=#457B9D;fillColor=#A8DADC;" edge="1" parent="WIyWlLk6GJQsqaUBKTNV-1" source="NiHceYWHQyxMRy1g1fNh-64" target="NiHceYWHQyxMRy1g1fNh-74">
          <mxGeometry relative="1" as="geometry" />
        </mxCell>
        <mxCell id="NiHceYWHQyxMRy1g1fNh-64" value="域名续费" style="whiteSpace=wrap;html=1;fontSize=12;glass=0;strokeWidth=1;shadow=0;fillColor=#ffe6cc;strokeColor=#d79b00;" vertex="1" parent="WIyWlLk6GJQsqaUBKTNV-1">
          <mxGeometry x="620" y="230" width="120" height="40" as="geometry" />
        </mxCell>
        <mxCell id="NiHceYWHQyxMRy1g1fNh-66" style="edgeStyle=orthogonalEdgeStyle;orthogonalLoop=1;jettySize=auto;html=1;entryX=0.5;entryY=0;entryDx=0;entryDy=0;entryPerimeter=0;fontColor=#1D3557;strokeColor=#457B9D;fillColor=#A8DADC;" edge="1" parent="WIyWlLk6GJQsqaUBKTNV-1" source="NiHceYWHQyxMRy1g1fNh-65" target="NiHceYWHQyxMRy1g1fNh-39">
          <mxGeometry relative="1" as="geometry" />
        </mxCell>
        <mxCell id="NiHceYWHQyxMRy1g1fNh-67" style="edgeStyle=orthogonalEdgeStyle;orthogonalLoop=1;jettySize=auto;html=1;fontColor=#1D3557;strokeColor=#457B9D;fillColor=#A8DADC;" edge="1" parent="WIyWlLk6GJQsqaUBKTNV-1" source="NiHceYWHQyxMRy1g1fNh-65" target="NiHceYWHQyxMRy1g1fNh-57">
          <mxGeometry relative="1" as="geometry" />
        </mxCell>
        <mxCell id="NiHceYWHQyxMRy1g1fNh-65" value="业务方" style="shape=hexagon;perimeter=hexagonPerimeter2;whiteSpace=wrap;html=1;fixedSize=1;strokeColor=#6c8ebf;fillColor=#dae8fc;gradientColor=#7ea6e0;" vertex="1" parent="WIyWlLk6GJQsqaUBKTNV-1">
          <mxGeometry x="462.5" y="-60" width="97.5" height="60" as="geometry" />
        </mxCell>
        <mxCell id="NiHceYWHQyxMRy1g1fNh-69" value="域名解析量数据" style="text;html=1;strokeColor=none;fillColor=none;align=center;verticalAlign=middle;whiteSpace=wrap;fontColor=#1D3557;" vertex="1" parent="WIyWlLk6GJQsqaUBKTNV-1">
          <mxGeometry x="650" y="-10" width="90" height="20" as="geometry" />
        </mxCell>
        <mxCell id="NiHceYWHQyxMRy1g1fNh-70" value="续费结果" style="text;html=1;strokeColor=none;fillColor=none;align=center;verticalAlign=middle;whiteSpace=wrap;fontColor=#1D3557;" vertex="1" parent="WIyWlLk6GJQsqaUBKTNV-1">
          <mxGeometry x="665" y="-60" width="60" height="30" as="geometry" />
        </mxCell>
        <mxCell id="NiHceYWHQyxMRy1g1fNh-78" value="" style="edgeStyle=orthogonalEdgeStyle;orthogonalLoop=1;jettySize=auto;html=1;fontColor=#1D3557;strokeColor=#457B9D;fillColor=#A8DADC;" edge="1" parent="WIyWlLk6GJQsqaUBKTNV-1" source="NiHceYWHQyxMRy1g1fNh-71" target="NiHceYWHQyxMRy1g1fNh-75">
          <mxGeometry relative="1" as="geometry" />
        </mxCell>
        <mxCell id="NiHceYWHQyxMRy1g1fNh-71" value="域名注销" style="whiteSpace=wrap;html=1;fontSize=12;glass=0;strokeWidth=1;shadow=0;fillColor=#ffe6cc;strokeColor=#d79b00;" vertex="1" parent="WIyWlLk6GJQsqaUBKTNV-1">
          <mxGeometry x="780" y="230" width="120" height="40" as="geometry" />
        </mxCell>
        <mxCell id="NiHceYWHQyxMRy1g1fNh-80" style="edgeStyle=orthogonalEdgeStyle;orthogonalLoop=1;jettySize=auto;html=1;entryX=0.07;entryY=0.4;entryDx=0;entryDy=0;entryPerimeter=0;fontColor=#1D3557;strokeColor=#457B9D;fillColor=#A8DADC;" edge="1" parent="WIyWlLk6GJQsqaUBKTNV-1" source="NiHceYWHQyxMRy1g1fNh-74" target="NiHceYWHQyxMRy1g1fNh-19">
          <mxGeometry relative="1" as="geometry">
            <Array as="points">
              <mxPoint x="680" y="690" />
              <mxPoint x="-270" y="690" />
              <mxPoint x="-270" y="342" />
            </Array>
          </mxGeometry>
        </mxCell>
        <mxCell id="NiHceYWHQyxMRy1g1fNh-86" style="edgeStyle=orthogonalEdgeStyle;orthogonalLoop=1;jettySize=auto;html=1;entryX=0.059;entryY=0.469;entryDx=0;entryDy=0;entryPerimeter=0;fontColor=#1D3557;strokeColor=#457B9D;fillColor=#A8DADC;" edge="1" parent="WIyWlLk6GJQsqaUBKTNV-1" source="NiHceYWHQyxMRy1g1fNh-74" target="NiHceYWHQyxMRy1g1fNh-38">
          <mxGeometry relative="1" as="geometry">
            <Array as="points">
              <mxPoint x="680" y="690" />
              <mxPoint x="-270" y="690" />
              <mxPoint x="-270" y="572" />
            </Array>
          </mxGeometry>
        </mxCell>
        <mxCell id="NiHceYWHQyxMRy1g1fNh-74" value="资源" style="whiteSpace=wrap;html=1;fontSize=12;glass=0;strokeWidth=1;shadow=0;fillColor=#ffe6cc;strokeColor=#d79b00;" vertex="1" parent="WIyWlLk6GJQsqaUBKTNV-1">
          <mxGeometry x="620" y="390" width="120" height="40" as="geometry" />
        </mxCell>
        <mxCell id="NiHceYWHQyxMRy1g1fNh-79" value="" style="edgeStyle=orthogonalEdgeStyle;orthogonalLoop=1;jettySize=auto;html=1;fontColor=#1D3557;strokeColor=#457B9D;fillColor=#A8DADC;" edge="1" parent="WIyWlLk6GJQsqaUBKTNV-1" source="NiHceYWHQyxMRy1g1fNh-75" target="NiHceYWHQyxMRy1g1fNh-76">
          <mxGeometry relative="1" as="geometry" />
        </mxCell>
        <mxCell id="NiHceYWHQyxMRy1g1fNh-75" value="sre停解析" style="whiteSpace=wrap;html=1;fontSize=12;glass=0;strokeWidth=1;shadow=0;fillColor=#ffe6cc;strokeColor=#d79b00;" vertex="1" parent="WIyWlLk6GJQsqaUBKTNV-1">
          <mxGeometry x="780" y="310" width="120" height="40" as="geometry" />
        </mxCell>
        <mxCell id="NiHceYWHQyxMRy1g1fNh-82" style="edgeStyle=orthogonalEdgeStyle;orthogonalLoop=1;jettySize=auto;html=1;fontColor=#1D3557;strokeColor=#457B9D;fillColor=#A8DADC;" edge="1" parent="WIyWlLk6GJQsqaUBKTNV-1" source="NiHceYWHQyxMRy1g1fNh-76">
          <mxGeometry relative="1" as="geometry">
            <mxPoint x="680" y="691.6666666666666" as="targetPoint" />
            <Array as="points">
              <mxPoint x="840" y="690" />
              <mxPoint x="680" y="690" />
            </Array>
          </mxGeometry>
        </mxCell>
        <mxCell id="NiHceYWHQyxMRy1g1fNh-76" value="资源" style="whiteSpace=wrap;html=1;fontSize=12;glass=0;strokeWidth=1;shadow=0;fillColor=#ffe6cc;strokeColor=#d79b00;" vertex="1" parent="WIyWlLk6GJQsqaUBKTNV-1">
          <mxGeometry x="780" y="390" width="120" height="40" as="geometry" />
        </mxCell>
        <mxCell id="NiHceYWHQyxMRy1g1fNh-81" value="手动更改域名续费自动状态&lt;br&gt;为是" style="text;html=1;strokeColor=none;fillColor=none;align=center;verticalAlign=middle;whiteSpace=wrap;fontColor=#1D3557;" vertex="1" parent="WIyWlLk6GJQsqaUBKTNV-1">
          <mxGeometry x="600" y="450" width="80" height="80" as="geometry" />
        </mxCell>
        <mxCell id="NiHceYWHQyxMRy1g1fNh-83" value="手动更改域名续费自动状态&lt;br&gt;为否" style="text;html=1;strokeColor=none;fillColor=none;align=center;verticalAlign=middle;whiteSpace=wrap;fontColor=#1D3557;" vertex="1" parent="WIyWlLk6GJQsqaUBKTNV-1">
          <mxGeometry x="760" y="450" width="80" height="80" as="geometry" />
        </mxCell>
        <mxCell id="NiHceYWHQyxMRy1g1fNh-84" value="收费dns套餐续费自动状态&lt;br&gt;为是" style="text;html=1;strokeColor=none;fillColor=none;align=center;verticalAlign=middle;whiteSpace=wrap;fontColor=#1D3557;" vertex="1" parent="WIyWlLk6GJQsqaUBKTNV-1">
          <mxGeometry x="600" y="530" width="80" height="80" as="geometry" />
        </mxCell>
        <mxCell id="NiHceYWHQyxMRy1g1fNh-85" value="收费dns套餐续费自动状态&lt;br&gt;为否" style="text;html=1;strokeColor=none;fillColor=none;align=center;verticalAlign=middle;whiteSpace=wrap;fontColor=#1D3557;" vertex="1" parent="WIyWlLk6GJQsqaUBKTNV-1">
          <mxGeometry x="760" y="530" width="80" height="80" as="geometry" />
        </mxCell>
        <mxCell id="NiHceYWHQyxMRy1g1fNh-89" value="PowerDNS&lt;br&gt;（内网解析）" style="shape=hexagon;perimeter=hexagonPerimeter2;whiteSpace=wrap;html=1;fixedSize=1;strokeColor=#6c8ebf;fillColor=#dae8fc;gradientColor=#7ea6e0;" vertex="1" parent="WIyWlLk6GJQsqaUBKTNV-1">
          <mxGeometry x="-360" y="770" width="120" height="80" as="geometry" />
        </mxCell>
        <mxCell id="NiHceYWHQyxMRy1g1fNh-91" value="白名单限制" style="text;html=1;strokeColor=none;fillColor=none;align=center;verticalAlign=middle;whiteSpace=wrap;fontColor=#1D3557;" vertex="1" parent="WIyWlLk6GJQsqaUBKTNV-1">
          <mxGeometry x="-230" y="780" width="90" height="30" as="geometry" />
        </mxCell>
        <mxCell id="NiHceYWHQyxMRy1g1fNh-94" value="接口实时操作" style="text;html=1;strokeColor=none;fillColor=none;align=center;verticalAlign=middle;whiteSpace=wrap;fontColor=#1D3557;" vertex="1" parent="WIyWlLk6GJQsqaUBKTNV-1">
          <mxGeometry x="10" y="780" width="120" height="30" as="geometry" />
        </mxCell>
        <mxCell id="NiHceYWHQyxMRy1g1fNh-103" value="" style="edgeStyle=orthogonalEdgeStyle;orthogonalLoop=1;jettySize=auto;html=1;fontColor=#1D3557;strokeColor=#457B9D;fillColor=#A8DADC;" edge="1" parent="WIyWlLk6GJQsqaUBKTNV-1" source="NiHceYWHQyxMRy1g1fNh-95" target="NiHceYWHQyxMRy1g1fNh-101">
          <mxGeometry relative="1" as="geometry" />
        </mxCell>
        <mxCell id="NiHceYWHQyxMRy1g1fNh-95" value="证书注册" style="whiteSpace=wrap;html=1;fontSize=12;glass=0;strokeWidth=1;shadow=0;fillColor=#ffe6cc;strokeColor=#d79b00;" vertex="1" parent="WIyWlLk6GJQsqaUBKTNV-1">
          <mxGeometry x="990" y="230" width="120" height="40" as="geometry" />
        </mxCell>
        <mxCell id="NiHceYWHQyxMRy1g1fNh-105" value="" style="edgeStyle=orthogonalEdgeStyle;orthogonalLoop=1;jettySize=auto;html=1;fontColor=#1D3557;strokeColor=#457B9D;fillColor=#A8DADC;" edge="1" parent="WIyWlLk6GJQsqaUBKTNV-1" source="NiHceYWHQyxMRy1g1fNh-96" target="NiHceYWHQyxMRy1g1fNh-104">
          <mxGeometry relative="1" as="geometry" />
        </mxCell>
        <mxCell id="NiHceYWHQyxMRy1g1fNh-96" value="证书续费" style="whiteSpace=wrap;html=1;fontSize=12;glass=0;strokeWidth=1;shadow=0;fillColor=#ffe6cc;strokeColor=#d79b00;" vertex="1" parent="WIyWlLk6GJQsqaUBKTNV-1">
          <mxGeometry x="1170" y="230" width="120" height="40" as="geometry" />
        </mxCell>
        <mxCell id="NiHceYWHQyxMRy1g1fNh-99" value="" style="shape=umlActor;verticalLabelPosition=bottom;verticalAlign=top;html=1;outlineConnect=0;fontColor=#1D3557;strokeColor=#457B9D;fillColor=#A8DADC;" vertex="1" parent="WIyWlLk6GJQsqaUBKTNV-1">
          <mxGeometry x="920" y="150" width="15" height="30" as="geometry" />
        </mxCell>
        <mxCell id="NiHceYWHQyxMRy1g1fNh-100" value="域名申请证书" style="text;html=1;strokeColor=none;fillColor=none;align=center;verticalAlign=middle;whiteSpace=wrap;fontColor=#1D3557;" vertex="1" parent="WIyWlLk6GJQsqaUBKTNV-1">
          <mxGeometry x="950" y="150" width="80" height="30" as="geometry" />
        </mxCell>
        <mxCell id="NiHceYWHQyxMRy1g1fNh-109" value="" style="edgeStyle=orthogonalEdgeStyle;orthogonalLoop=1;jettySize=auto;html=1;fontColor=#1D3557;strokeColor=#457B9D;fillColor=#A8DADC;" edge="1" parent="WIyWlLk6GJQsqaUBKTNV-1" source="NiHceYWHQyxMRy1g1fNh-101" target="NiHceYWHQyxMRy1g1fNh-107">
          <mxGeometry relative="1" as="geometry" />
        </mxCell>
        <mxCell id="NiHceYWHQyxMRy1g1fNh-111" style="edgeStyle=orthogonalEdgeStyle;orthogonalLoop=1;jettySize=auto;html=1;entryX=0.111;entryY=0.577;entryDx=0;entryDy=0;entryPerimeter=0;fontColor=#1D3557;strokeColor=#457B9D;fillColor=#A8DADC;" edge="1" parent="WIyWlLk6GJQsqaUBKTNV-1" source="NiHceYWHQyxMRy1g1fNh-101" target="NiHceYWHQyxMRy1g1fNh-106">
          <mxGeometry relative="1" as="geometry">
            <Array as="points">
              <mxPoint x="1050" y="408" />
            </Array>
          </mxGeometry>
        </mxCell>
        <mxCell id="NiHceYWHQyxMRy1g1fNh-101" value="资源" style="whiteSpace=wrap;html=1;fontSize=12;glass=0;strokeWidth=1;shadow=0;fillColor=#ffe6cc;strokeColor=#d79b00;" vertex="1" parent="WIyWlLk6GJQsqaUBKTNV-1">
          <mxGeometry x="990" y="330" width="120" height="40" as="geometry" />
        </mxCell>
        <mxCell id="NiHceYWHQyxMRy1g1fNh-110" value="" style="edgeStyle=orthogonalEdgeStyle;orthogonalLoop=1;jettySize=auto;html=1;fontColor=#1D3557;strokeColor=#457B9D;fillColor=#A8DADC;" edge="1" parent="WIyWlLk6GJQsqaUBKTNV-1" source="NiHceYWHQyxMRy1g1fNh-104" target="NiHceYWHQyxMRy1g1fNh-108">
          <mxGeometry relative="1" as="geometry" />
        </mxCell>
        <mxCell id="NiHceYWHQyxMRy1g1fNh-113" style="edgeStyle=orthogonalEdgeStyle;orthogonalLoop=1;jettySize=auto;html=1;entryX=0.102;entryY=0.56;entryDx=0;entryDy=0;entryPerimeter=0;fontColor=#1D3557;strokeColor=#457B9D;fillColor=#A8DADC;" edge="1" parent="WIyWlLk6GJQsqaUBKTNV-1" source="NiHceYWHQyxMRy1g1fNh-104" target="NiHceYWHQyxMRy1g1fNh-106">
          <mxGeometry relative="1" as="geometry" />
        </mxCell>
        <mxCell id="NiHceYWHQyxMRy1g1fNh-104" value="资源" style="whiteSpace=wrap;html=1;fontSize=12;glass=0;strokeWidth=1;shadow=0;fillColor=#ffe6cc;strokeColor=#d79b00;" vertex="1" parent="WIyWlLk6GJQsqaUBKTNV-1">
          <mxGeometry x="1170" y="330" width="120" height="40" as="geometry" />
        </mxCell>
        <mxCell id="NiHceYWHQyxMRy1g1fNh-106" value="讯通" style="ellipse;shape=cloud;whiteSpace=wrap;html=1;" vertex="1" parent="WIyWlLk6GJQsqaUBKTNV-1">
          <mxGeometry x="1450" y="350" width="190" height="100" as="geometry" />
        </mxCell>
        <mxCell id="NiHceYWHQyxMRy1g1fNh-107" value="状态" style="whiteSpace=wrap;html=1;fontSize=12;glass=0;strokeWidth=1;shadow=0;fillColor=#ffe6cc;strokeColor=#d79b00;" vertex="1" parent="WIyWlLk6GJQsqaUBKTNV-1">
          <mxGeometry x="990" y="480" width="120" height="40" as="geometry" />
        </mxCell>
        <mxCell id="NiHceYWHQyxMRy1g1fNh-108" value="状态" style="whiteSpace=wrap;html=1;fontSize=12;glass=0;strokeWidth=1;shadow=0;fillColor=#ffe6cc;strokeColor=#d79b00;" vertex="1" parent="WIyWlLk6GJQsqaUBKTNV-1">
          <mxGeometry x="1170" y="480" width="120" height="40" as="geometry" />
        </mxCell>
        <mxCell id="NiHceYWHQyxMRy1g1fNh-115" value="购买" style="text;html=1;strokeColor=none;fillColor=none;align=center;verticalAlign=middle;whiteSpace=wrap;fontColor=#1D3557;" vertex="1" parent="WIyWlLk6GJQsqaUBKTNV-1">
          <mxGeometry x="1390" y="375" width="60" height="30" as="geometry" />
        </mxCell>
        <mxCell id="NiHceYWHQyxMRy1g1fNh-119" style="edgeStyle=orthogonalEdgeStyle;orthogonalLoop=1;jettySize=auto;html=1;entryX=0.582;entryY=0.954;entryDx=0;entryDy=0;entryPerimeter=0;fontColor=#1D3557;strokeColor=#457B9D;fillColor=#A8DADC;" edge="1" parent="WIyWlLk6GJQsqaUBKTNV-1" source="NiHceYWHQyxMRy1g1fNh-116" target="NiHceYWHQyxMRy1g1fNh-106">
          <mxGeometry relative="1" as="geometry" />
        </mxCell>
        <mxCell id="NiHceYWHQyxMRy1g1fNh-120" style="edgeStyle=orthogonalEdgeStyle;orthogonalLoop=1;jettySize=auto;html=1;fontColor=#1D3557;strokeColor=#457B9D;fillColor=#A8DADC;" edge="1" parent="WIyWlLk6GJQsqaUBKTNV-1" source="NiHceYWHQyxMRy1g1fNh-116">
          <mxGeometry relative="1" as="geometry">
            <mxPoint x="490" y="610" as="targetPoint" />
          </mxGeometry>
        </mxCell>
        <mxCell id="NiHceYWHQyxMRy1g1fNh-116" value="定时脚本" style="whiteSpace=wrap;html=1;fontSize=12;glass=0;strokeWidth=1;shadow=0;fillColor=#b0e3e6;strokeColor=#0e8088;" vertex="1" parent="WIyWlLk6GJQsqaUBKTNV-1">
          <mxGeometry x="1500" y="620" width="120" height="40" as="geometry" />
        </mxCell>
        <mxCell id="NiHceYWHQyxMRy1g1fNh-121" value="同步" style="text;html=1;strokeColor=none;fillColor=none;align=center;verticalAlign=middle;whiteSpace=wrap;fontColor=#1D3557;" vertex="1" parent="WIyWlLk6GJQsqaUBKTNV-1">
          <mxGeometry x="1080" y="610" width="60" height="30" as="geometry" />
        </mxCell>
        <mxCell id="NiHceYWHQyxMRy1g1fNh-122" value="拉取" style="text;html=1;strokeColor=none;fillColor=none;align=center;verticalAlign=middle;whiteSpace=wrap;fontColor=#1D3557;" vertex="1" parent="WIyWlLk6GJQsqaUBKTNV-1">
          <mxGeometry x="1500" y="520" width="60" height="30" as="geometry" />
        </mxCell>
        <mxCell id="NiHceYWHQyxMRy1g1fNh-125" value="更改" style="text;html=1;strokeColor=none;fillColor=none;align=center;verticalAlign=middle;whiteSpace=wrap;fontColor=#1D3557;" vertex="1" parent="WIyWlLk6GJQsqaUBKTNV-1">
          <mxGeometry x="920" y="580" width="60" height="30" as="geometry" />
        </mxCell>
        <mxCell id="NiHceYWHQyxMRy1g1fNh-128" value="设置管理" style="text;html=1;strokeColor=none;fillColor=none;align=center;verticalAlign=middle;whiteSpace=wrap;fontColor=#1D3557;" vertex="1" parent="WIyWlLk6GJQsqaUBKTNV-1">
          <mxGeometry x="330" y="180" width="60" height="30" as="geometry" />
        </mxCell>
        <mxCell id="NiHceYWHQyxMRy1g1fNh-129" value="云平台证书&lt;br&gt;（腾讯云）" style="ellipse;shape=cloud;whiteSpace=wrap;html=1;" vertex="1" parent="WIyWlLk6GJQsqaUBKTNV-1">
          <mxGeometry x="1450" y="130" width="190" height="100" as="geometry" />
        </mxCell>
        <mxCell id="NiHceYWHQyxMRy1g1fNh-131" value="上传" style="text;html=1;strokeColor=none;fillColor=none;align=center;verticalAlign=middle;whiteSpace=wrap;fontColor=#1D3557;" vertex="1" parent="WIyWlLk6GJQsqaUBKTNV-1">
          <mxGeometry x="1180" y="150" width="60" height="30" as="geometry" />
        </mxCell>
      </root>
    </mxGraphModel>
  </diagram>
</mxfile>
